<?xml version="1.0" encoding="UTF-8"?>
<svg width="700pt" height="700pt" version="1.1" viewBox="0 0 700 700" xmlns="http://www.w3.org/2000/svg" xmlns:xlink="http://www.w3.org/1999/xlink">
 <defs>
  <symbol id="u" overflow="visible">
   <path d="m14.656-0.875c-0.76172 0.39844-1.5547 0.69531-2.375 0.89062-0.8125 0.19531-1.6641 0.29688-2.5469 0.29688-2.6562 0-4.7617-0.73828-6.3125-2.2188-1.5547-1.4883-2.3281-3.5039-2.3281-6.0469 0-2.5508 0.77344-4.5664 2.3281-6.0469 1.5508-1.4883 3.6562-2.2344 6.3125-2.2344 0.88281 0 1.7344 0.10156 2.5469 0.29688 0.82031 0.19922 1.6133 0.49609 2.375 0.89062v3.2969c-0.76172-0.51953-1.5117-0.89844-2.25-1.1406-0.74219-0.23828-1.5234-0.35938-2.3438-0.35938-1.4688 0-2.625 0.46875-3.4688 1.4062-0.83594 0.9375-1.25 2.2344-1.25 3.8906 0 1.6484 0.41406 2.9375 1.25 3.875 0.84375 0.9375 2 1.4062 3.4688 1.4062 0.82031 0 1.6016-0.11719 2.3438-0.35938 0.73828-0.23828 1.4883-0.61719 2.25-1.1406z"/>
  </symbol>
  <symbol id="b" overflow="visible">
   <path d="m10.719-8.7031c-0.33594-0.15625-0.66797-0.26953-1-0.34375-0.32422-0.082031-0.65625-0.125-1-0.125-0.98047 0-1.7344 0.32031-2.2656 0.95312-0.53125 0.625-0.79688 1.5273-0.79688 2.7031v5.5156h-3.8125v-11.969h3.8125v1.9688c0.48828-0.78125 1.0508-1.3477 1.6875-1.7031 0.64453-0.36328 1.4102-0.54688 2.2969-0.54688 0.13281 0 0.27344 0.007812 0.42188 0.015625 0.14453 0.011719 0.36328 0.03125 0.65625 0.0625z"/>
  </symbol>
  <symbol id="a" overflow="visible">
   <path d="m13.781-6.0156v1.0938h-8.9375c0.09375 0.89844 0.41406 1.5703 0.96875 2.0156 0.55078 0.44922 1.3281 0.67188 2.3281 0.67188 0.80078 0 1.625-0.11719 2.4688-0.35938 0.84375-0.23828 1.7109-0.59766 2.6094-1.0781v2.9531c-0.90625 0.33594-1.8125 0.58984-2.7188 0.76562s-1.8125 0.26562-2.7188 0.26562c-2.1562 0-3.8398-0.54688-5.0469-1.6406-1.1992-1.1016-1.7969-2.6484-1.7969-4.6406 0-1.9453 0.58594-3.4766 1.7656-4.5938 1.1758-1.125 2.8008-1.6875 4.875-1.6875 1.875 0 3.375 0.57031 4.5 1.7031 1.1328 1.125 1.7031 2.6367 1.7031 4.5312zm-3.9375-1.2656c0-0.72656-0.21484-1.3125-0.64062-1.75-0.41797-0.44531-0.96875-0.67188-1.6562-0.67188-0.74219 0-1.3438 0.21094-1.8125 0.625-0.46094 0.41797-0.74609 1.0156-0.85938 1.7969z"/>
  </symbol>
  <symbol id="k" overflow="visible">
   <path d="m7.2031-5.3906c-0.80469 0-1.4062 0.13672-1.8125 0.40625-0.39844 0.27344-0.59375 0.67188-0.59375 1.2031 0 0.48047 0.16016 0.85938 0.48438 1.1406 0.32031 0.27344 0.77344 0.40625 1.3594 0.40625 0.71875 0 1.3203-0.25391 1.8125-0.76562 0.48828-0.51953 0.73438-1.1719 0.73438-1.9531v-0.4375zm5.8438-1.4375v6.8281h-3.8594v-1.7656c-0.51172 0.71875-1.0898 1.2461-1.7344 1.5781-0.63672 0.33203-1.418 0.5-2.3438 0.5-1.2422 0-2.2461-0.35938-3.0156-1.0781-0.77344-0.72656-1.1562-1.6719-1.1562-2.8281 0-1.3945 0.47656-2.4219 1.4375-3.0781 0.96875-0.65625 2.4883-0.98438 4.5625-0.98438h2.25v-0.29688c0-0.60156-0.24219-1.0469-0.71875-1.3281-0.48047-0.28125-1.2266-0.42188-2.2344-0.42188-0.8125 0-1.5742 0.085937-2.2812 0.25-0.71094 0.15625-1.3672 0.40234-1.9688 0.73438v-2.9219c0.82031-0.19531 1.6445-0.34766 2.4688-0.45312 0.82031-0.10156 1.6484-0.15625 2.4844-0.15625 2.1562 0 3.7109 0.42969 4.6719 1.2812 0.95703 0.84375 1.4375 2.2266 1.4375 4.1406z"/>
  </symbol>
  <symbol id="c" overflow="visible">
   <path d="m6.0156-15.359v3.3906h3.9375v2.7344h-3.9375v5.0781c0 0.55469 0.10938 0.92969 0.32812 1.125 0.21875 0.19922 0.65625 0.29688 1.3125 0.29688h1.9688v2.7344h-3.2812c-1.5117 0-2.5859-0.3125-3.2188-0.9375-0.625-0.63281-0.9375-1.707-0.9375-3.2188v-5.0781h-1.9062v-2.7344h1.9062v-3.3906z"/>
  </symbol>
  <symbol id="j" overflow="visible">
   <path d="m9.9688-10.219v-6.4062h3.8594v16.625h-3.8594v-1.7344c-0.52344 0.71094-1.1016 1.2305-1.7344 1.5625-0.63672 0.32031-1.3711 0.48438-2.2031 0.48438-1.4688 0-2.6797-0.58203-3.625-1.75-0.94922-1.1758-1.4219-2.6875-1.4219-4.5312s0.47266-3.3477 1.4219-4.5156c0.94531-1.1758 2.1562-1.7656 3.625-1.7656 0.83203 0 1.5664 0.16797 2.2031 0.5 0.63281 0.32422 1.2109 0.83594 1.7344 1.5312zm-2.5156 7.75c0.82031 0 1.4453-0.29688 1.875-0.89062 0.42578-0.60156 0.64062-1.4727 0.64062-2.6094 0-1.1445-0.21484-2.0156-0.64062-2.6094-0.42969-0.59375-1.0547-0.89062-1.875-0.89062-0.8125 0-1.4336 0.29688-1.8594 0.89062-0.42969 0.59375-0.64062 1.4648-0.64062 2.6094 0 1.1367 0.21094 2.0078 0.64062 2.6094 0.42578 0.59375 1.0469 0.89062 1.8594 0.89062z"/>
  </symbol>
  <symbol id="i" overflow="visible">
   <path d="m8.2031-2.4688c0.82031 0 1.4453-0.29688 1.875-0.89062 0.42578-0.60156 0.64062-1.4727 0.64062-2.6094 0-1.1445-0.21484-2.0156-0.64062-2.6094-0.42969-0.59375-1.0547-0.89062-1.875-0.89062-0.82422 0-1.4531 0.30469-1.8906 0.90625-0.4375 0.59375-0.65625 1.4609-0.65625 2.5938 0 1.1367 0.21875 2.0078 0.65625 2.6094 0.4375 0.59375 1.0664 0.89062 1.8906 0.89062zm-2.5469-7.75c0.53125-0.69531 1.1133-1.207 1.75-1.5312 0.64453-0.33203 1.3828-0.5 2.2188-0.5 1.4688 0 2.6758 0.58984 3.625 1.7656 0.94531 1.168 1.4219 2.6719 1.4219 4.5156s-0.47656 3.3555-1.4219 4.5312c-0.94922 1.168-2.1562 1.75-3.625 1.75-0.83594 0-1.5742-0.16797-2.2188-0.5-0.63672-0.33203-1.2188-0.84766-1.75-1.5469v1.7344h-3.8125v-16.625h3.8125z"/>
  </symbol>
  <symbol id="h" overflow="visible">
   <path d="m0.26562-11.969h3.8281l3.2188 8.125 2.7344-8.125h3.8125l-5.0312 13.094c-0.5 1.332-1.0898 2.2656-1.7656 2.7969-0.66797 0.53125-1.5547 0.79688-2.6562 0.79688h-2.2188v-2.5h1.2031c0.64453 0 1.1133-0.10547 1.4062-0.3125 0.30078-0.21094 0.53125-0.57812 0.6875-1.1094l0.10938-0.34375z"/>
  </symbol>
  <symbol id="g" overflow="visible">
   <path d="m0.10938-15.953h4.125l4.2344 11.781 4.2188-11.781h4.1406l-5.9062 15.953h-4.9062z"/>
  </symbol>
  <symbol id="t" overflow="visible">
   <path d="m1.8438-11.969h3.8125v11.969h-3.8125zm0-4.6562h3.8125v3.125h-3.8125z"/>
  </symbol>
  <symbol id="f" overflow="visible">
   <path d="m11.5-11.594v3.125c-0.52344-0.35156-1.043-0.61328-1.5625-0.78125-0.52344-0.17578-1.0625-0.26562-1.625-0.26562-1.0742 0-1.9062 0.3125-2.5 0.9375s-0.89062 1.4961-0.89062 2.6094c0 1.1172 0.29688 1.9844 0.89062 2.6094s1.4258 0.9375 2.5 0.9375c0.59375 0 1.1562-0.085937 1.6875-0.26562 0.53906-0.17578 1.0391-0.44141 1.5-0.79688v3.125c-0.59375 0.23047-1.1992 0.39453-1.8125 0.5-0.61719 0.11328-1.2344 0.17188-1.8594 0.17188-2.1562 0-3.8438-0.55078-5.0625-1.6562-1.2188-1.1133-1.8281-2.6562-1.8281-4.625s0.60938-3.5039 1.8281-4.6094c1.2188-1.1133 2.9062-1.6719 5.0625-1.6719 0.625 0 1.2383 0.058594 1.8438 0.17188 0.61328 0.10547 1.2227 0.26562 1.8281 0.48438z"/>
  </symbol>
  <symbol id="d" overflow="visible">
   <path d="m7.5312-9.5156c-0.84375 0-1.4922 0.30859-1.9375 0.92188-0.44922 0.60547-0.67188 1.4805-0.67188 2.625 0 1.1484 0.22266 2.0273 0.67188 2.6406 0.44531 0.60547 1.0938 0.90625 1.9375 0.90625 0.83203 0 1.4688-0.30078 1.9062-0.90625 0.44531-0.61328 0.67188-1.4922 0.67188-2.6406 0-1.1445-0.22656-2.0195-0.67188-2.625-0.4375-0.61328-1.0742-0.92188-1.9062-0.92188zm0-2.7344c2.0508 0 3.6562 0.55859 4.8125 1.6719 1.1641 1.1055 1.75 2.6406 1.75 4.6094s-0.58594 3.5117-1.75 4.625c-1.1562 1.1055-2.7617 1.6562-4.8125 1.6562-2.0625 0-3.6797-0.55078-4.8438-1.6562-1.168-1.1133-1.75-2.6562-1.75-4.625s0.58203-3.5039 1.75-4.6094c1.1641-1.1133 2.7812-1.6719 4.8438-1.6719z"/>
  </symbol>
  <symbol id="e" overflow="visible">
   <path d="m1.7031-4.6562v-7.3125h3.8438v1.2031c0 0.64844-0.007813 1.4609-0.015625 2.4375v1.9688c0 0.96094 0.023438 1.6523 0.078125 2.0781 0.050781 0.41797 0.13281 0.72656 0.25 0.92188 0.15625 0.25 0.35938 0.44531 0.60938 0.57812 0.25781 0.13672 0.55078 0.20312 0.875 0.20312 0.80078 0 1.4258-0.30469 1.875-0.92188 0.45703-0.61328 0.6875-1.4688 0.6875-2.5625v-5.9062h3.8281v11.969h-3.8281v-1.7344c-0.57422 0.69922-1.1836 1.2148-1.8281 1.5469-0.64844 0.33203-1.3555 0.5-2.125 0.5-1.3867 0-2.4453-0.42188-3.1719-1.2656-0.71875-0.85156-1.0781-2.0859-1.0781-3.7031z"/>
  </symbol>
  <symbol id="s" overflow="visible">
   <path d="m1.8438-16.625h3.8125v16.625h-3.8125z"/>
  </symbol>
  <symbol id="r" overflow="visible">
   <path d="m9.7031-16.625v2.5156h-2.1094c-0.54297 0-0.92188 0.10156-1.1406 0.29688-0.21094 0.19922-0.3125 0.53906-0.3125 1.0156v0.82812h3.2656v2.7344h-3.2656v9.2344h-3.8281v-9.2344h-1.8906v-2.7344h1.8906v-0.82812c0-1.3008 0.36328-2.2656 1.0938-2.8906 0.72656-0.625 1.8516-0.9375 3.375-0.9375z"/>
  </symbol>
  <symbol id="q" overflow="visible">
   <path d="m12.922-9.9688c0.48828-0.75 1.0625-1.3164 1.7188-1.7031 0.66406-0.38281 1.3984-0.57812 2.2031-0.57812 1.375 0 2.4219 0.42969 3.1406 1.2812 0.71875 0.84375 1.0781 2.0742 1.0781 3.6875v7.2812h-3.8438v-6.2344c0.007812-0.09375 0.015625-0.1875 0.015625-0.28125v-0.4375c0-0.84375-0.125-1.457-0.375-1.8438-0.25-0.38281-0.65234-0.57812-1.2031-0.57812-0.73047 0-1.293 0.30469-1.6875 0.90625-0.38672 0.59375-0.58984 1.4609-0.60938 2.5938v5.875h-3.8438v-6.2344c0-1.3203-0.11719-2.1758-0.34375-2.5625-0.23047-0.38281-0.63672-0.57812-1.2188-0.57812-0.73047 0-1.2969 0.30469-1.7031 0.90625-0.39844 0.60547-0.59375 1.4648-0.59375 2.5781v5.8906h-3.8438v-11.969h3.8438v1.75c0.46875-0.66406 1.0039-1.1719 1.6094-1.5156 0.61328-0.34375 1.2891-0.51562 2.0312-0.51562 0.82031 0 1.5508 0.19922 2.1875 0.59375 0.63281 0.39844 1.1133 0.96094 1.4375 1.6875z"/>
  </symbol>
  <symbol id="p" overflow="visible">
   <path d="m13.859-7.2812v7.2812h-3.8438v-5.5469c0-1.0508-0.027344-1.7695-0.078125-2.1562-0.042969-0.39453-0.12109-0.6875-0.23438-0.875-0.14844-0.25-0.35156-0.44141-0.60938-0.57812-0.25-0.14453-0.54297-0.21875-0.875-0.21875-0.79297 0-1.418 0.3125-1.875 0.9375-0.46094 0.61719-0.6875 1.4648-0.6875 2.5469v5.8906h-3.8125v-16.625h3.8125v6.4062c0.58203-0.69531 1.1953-1.207 1.8438-1.5312 0.64453-0.33203 1.3594-0.5 2.1406-0.5 1.3828 0 2.4297 0.42969 3.1406 1.2812 0.71875 0.84375 1.0781 2.0742 1.0781 3.6875z"/>
  </symbol>
  <symbol id="o" overflow="visible">
   <path d="m2.0156-15.953h4.5781l5.8125 10.938v-10.938h3.8906v15.953h-4.5938l-5.7969-10.938v10.938h-3.8906z"/>
  </symbol>
  <symbol id="n" overflow="visible">
   <path d="m13.859-7.2812v7.2812h-3.8438v-5.5781c0-1.0312-0.027344-1.7383-0.078125-2.125-0.042969-0.39453-0.12109-0.6875-0.23438-0.875-0.14844-0.25-0.35156-0.44141-0.60938-0.57812-0.25-0.14453-0.54297-0.21875-0.875-0.21875-0.79297 0-1.418 0.3125-1.875 0.9375-0.46094 0.61719-0.6875 1.4648-0.6875 2.5469v5.8906h-3.8125v-11.969h3.8125v1.75c0.58203-0.69531 1.1953-1.207 1.8438-1.5312 0.64453-0.33203 1.3594-0.5 2.1406-0.5 1.3828 0 2.4297 0.42969 3.1406 1.2812 0.71875 0.84375 1.0781 2.0742 1.0781 3.6875z"/>
  </symbol>
  <symbol id="m" overflow="visible">
   <path d="m2.0156-15.953h6.8125c2.0312 0 3.5859 0.45312 4.6719 1.3594 1.0938 0.89844 1.6406 2.1797 1.6406 3.8438 0 1.6797-0.54688 2.9688-1.6406 3.875-1.0859 0.89844-2.6406 1.3438-4.6719 1.3438h-2.7031v5.5312h-4.1094zm4.1094 2.9844v4.4531h2.2656c0.80078 0 1.4141-0.19141 1.8438-0.57812 0.4375-0.38281 0.65625-0.9375 0.65625-1.6562 0-0.70703-0.21875-1.2539-0.65625-1.6406-0.42969-0.38281-1.043-0.57812-1.8438-0.57812z"/>
  </symbol>
  <symbol id="l" overflow="visible">
   <path d="m1.8438-11.969h3.8125v11.75c0 1.6016-0.38672 2.8281-1.1562 3.6719-0.76172 0.84375-1.8711 1.2656-3.3281 1.2656h-1.8906v-2.5h0.65625c0.72656 0 1.2266-0.16797 1.5-0.5 0.26953-0.32422 0.40625-0.96875 0.40625-1.9375zm0-4.6562h3.8125v3.125h-3.8125z"/>
  </symbol>
 </defs>
 <g>
  <path d="m535.02 540.84h-14.613l-21.742-85.137s2.0352 1.0977 2.6953 1.3125c0.63672 0.23438 1.3047 0.38281 1.9844 0.4375 2.5781-0.007813 4.9141-1.5078 5.9922-3.8477 1.2812-3.1445 0.074218-6.7539-2.8438-8.4883 0 0-113.53-85.355-152.47-115.72-2.3672-1.8398-5.6797-1.8398-8.0469 0-38.938 30.363-152.82 115.94-152.82 115.94-3.0703 1.9336-3.9883 5.9883-2.0547 9.0547 1.9297 3.0703 5.9844 3.9883 9.0547 2.0586l1.1797-0.74219-21.742 85.137-14.613-0.003906c-3.625 0-6.5625 2.9414-6.5625 6.5625 0 3.625 2.9375 6.5625 6.5625 6.5625h370.04c3.625 0 6.5625-2.9375 6.5625-6.5625 0-3.6211-2.9375-6.5625-6.5625-6.5625zm-305.64 0h-15.488c0.78906-3.543 9.668-47.426 14.699-63.613v0.003906c2.0312-7.5742 5.0938-14.832 9.1016-21.57 0.50781-0.79688 1.4766-1.1758 2.3906-0.9375 0.91797 0.24219 1.5781 1.043 1.6328 1.9883 1.3984 14.918-11.551 79.711-12.336 84.129zm64.883 0h-30.586c0.69922-4.1992 10.02-64.617 16.055-87.805 6.4766-24.676 12.164-32.727 15.27-35.352h0.003906c0.52734-0.46094 1.2422-0.64453 1.9258-0.48828 0.6875 0.15625 1.2539 0.63281 1.5273 1.2773 4.9883 10.852 5.1211 54.426-4.1992 122.37zm34.648 0c0.65625-8.9258 3.9375-91.352 7.4805-115.98 5.4258-37.758 13.258-38.195 13.605-38.195 0.35156 0 8.8359 0.48047 15.531 41.562 4.332 26.512 9.1875 105.26 9.7578 112.61zm81.023 0c-0.17578-1.2695-0.35156-2.5391-0.57031-3.9805-12.031-81.375-11.289-109.9-7.6992-118.26v0.003906c0.27734-0.64844 0.84375-1.1211 1.5273-1.2773 0.68359-0.15625 1.4023 0.023437 1.9297 0.48828 3.1484 2.7578 8.793 10.938 15.137 35.219 6.0391 23.188 15.355 83.605 16.055 87.805zm60.68 0c-0.78906-4.418-13.738-69.211-12.336-84.133v0.003906c0.054688-0.94531 0.71484-1.7461 1.6328-1.9883 0.91406-0.23828 1.8828 0.14062 2.3906 0.9375 4.0078 6.7383 7.0703 13.996 9.1016 21.57 4.9453 15.969 13.914 60.07 14.699 63.613z"/>
  <path d="m499.1 397.25-4.375-3.5c-1.0078-0.79297-1.6055-1.9883-1.6406-3.2695-2-73.16-7-191-19.152-244.16-1.3125-5.6875-2.7383-11.398-4.1836-17.105-4.7148-16.277-7.75-32.996-9.0625-49.891l-0.4375-10.734v-0.003906c-0.011719-0.99609 0.35547-1.957 1.0273-2.6953 3.293-4.043 3.2266-9.8594-0.15234-13.832-0.34766-0.47266-0.78516-0.875-1.2812-1.1875-3.2734-2.4141-7.6328-2.75-11.238-0.86719-3.6016 1.8828-5.8164 5.6562-5.7031 9.7188 0.10938 2.5898 1.1914 5.043 3.0312 6.8672 0.77344 0.83203 1.207 1.9258 1.2188 3.0625l0.41406 10.215c0.050782 16.945-1.6289 33.855-5.0195 50.461-0.97656 5.8086-1.9531 11.617-2.7852 17.414-6.3594 44.008-4.8828 130.38-2.1875 200.33l-2.0898-1.6719c-2.2969-73.289-7.4688-180.29-18.688-230.34-1.2812-5.7148-2.707-11.434-4.1289-17.16-3.25-13.082-7.3711-47.141-8.8984-60.344-0.40625-2.668 0.10547-5.3945 1.4531-7.7305 2.4102-3.9961 2.0195-9.082-0.97266-12.664-0.35938-0.48047-0.80469-0.89062-1.3125-1.207-3.2617-2.4219-7.6211-2.7773-11.23-0.90625-3.6094 1.8672-5.8359 5.6289-5.7383 9.6914 0.097656 2.5938 1.1719 5.0508 3.0078 6.8828 0.75391 0.8125 1.1367 1.9023 1.0586 3.0117-0.375 9.4648-2.082 49.613-4.6016 64.242-0.99609 5.8203-2 11.625-2.8555 17.426-6.0273 40.613-5.5117 117.39-3.5 184l-3.2695-2.625c-0.97266-0.78125-1.5664-1.9336-1.6328-3.1797-0.48828-8.6055-1.0352-16.941-1.6719-24.84-0.18359-1.5703 0.44922-3.1289 1.6797-4.1211 0.91406-0.67578 1.6328-1.582 2.082-2.625 1.4531-3.3203-0.0625-7.1875-3.3789-8.6406-0.55078-0.24219-1.2305-0.52344-1.8516-0.78906-1.1289-10.863-2.4414-20.613-3.9727-28.844-1.0703-5.7578-2.2812-11.523-3.5-17.289-4.0312-15.688-6.3789-31.758-7-47.941v-6.8555c-0.019531-1.5 0.75391-2.8984 2.0352-3.6797 4.4023-2.6602 7.4219-7.1172 8.2578-12.195 0.83203-5.0781-0.59766-10.266-3.918-14.199-0.31641-0.4375-0.70312-0.82422-1.1406-1.1406-13.758-9.9102-28.719-0.22266-28.719 12.895v-0.003907c0.003906 6.0117 3.1836 11.57 8.3594 14.621 1.2656 0.78516 2.0234 2.1719 2 3.6602v6.9219c-0.63672 16.191-3 32.273-7.0469 47.965-1.2148 5.7656-2.4219 11.531-3.5 17.289-1.5312 8.2188-2.8398 17.977-3.9648 28.832l-1.8516 0.79688c-1.5938 0.69531-2.8516 1.9961-3.4883 3.6172-0.63672 1.6211-0.60156 3.4297 0.09375 5.0234 0.45312 1.043 1.1719 1.9492 2.082 2.625 1.2344 0.99609 1.8711 2.5547 1.6836 4.1289-0.63281 7.875-1.1797 16.227-1.6719 24.832l0.003906 0.003907c-0.070313 1.2422-0.66406 2.3945-1.6328 3.1758l-3.2695 2.625c2.0195-66.609 2.5391-143.39-3.5-184.01-0.875-5.8008-1.8594-11.605-2.8555-17.426-3.4531-16.598-5.1992-33.504-5.207-50.457 0 0 0.35156-10.316 0.48047-14.297 0.066406-0.98828 0.50391-1.9102 1.2266-2.582 3.6133-3.7812 4.0078-9.6055 0.92969-13.836-0.3125-0.49609-0.71484-0.92969-1.1875-1.2773-3.0742-2.6641-7.3984-3.3398-11.137-1.7383-3.7422 1.5977-6.2422 5.1875-6.4375 9.25-0.09375 2.625 0.82422 5.1875 2.5625 7.1562 0.72266 0.89062 1.0742 2.0234 0.99219 3.1641-0.17188 4.293-0.53906 13.676-0.53906 13.676v0.003906c-1.2539 16.887-4.2266 33.605-8.875 49.891-1.4219 5.7266-2.8477 11.445-4.1289 17.16-11.223 50.051-16.391 157.06-18.688 230.34l-2.0898 1.6719c2.6914-69.934 4.1719-156.3-2.1875-200.33-0.83594-5.7969-1.8125-11.602-2.7852-17.414h-0.003907c-3.3828-16.602-5.0625-33.504-5.0078-50.445l0.4375-10.73c0.066406-1 0.51172-1.9375 1.2422-2.625 3.6211-3.7695 4.0312-9.5859 0.97266-13.824-0.3125-0.49609-0.71094-0.93359-1.1836-1.2812-3.0625-2.6758-7.3789-3.3672-11.125-1.7852-3.7422 1.582-6.2578 5.1641-6.4727 9.2227-0.10547 2.5859 0.77344 5.1172 2.4609 7.0859 0.70703 0.89453 1.0508 2.0234 0.96875 3.1602l-0.42578 10.25c-1.3203 16.902-4.3633 33.625-9.082 49.91-1.4453 5.6875-2.8828 11.406-4.1836 17.105-12.141 53.156-17.152 171-19.152 244.16-0.035156 1.2773-0.63672 2.4766-1.6406 3.2656l-4.3516 3.5h-0.003906c-1.5469 1.25-2.4492 3.1328-2.4492 5.1211 0 0 0.078125 8.3125 0.24219 15.055 0.042969 1.6445 1 3.125 2.4844 3.8359 1.4844 0.70703 3.2383 0.52734 4.5469-0.47266 25.312-19.43 98.59-75.617 132.2-101.78 3.4531-2.6797 7.7031-4.1367 12.074-4.1367s8.6211 1.457 12.074 4.1367c33.613 26.164 106.89 82.352 132.2 101.77 1.3086 0.99609 3.0625 1.1797 4.5469 0.46875 1.4844-0.71094 2.4414-2.1914 2.4844-3.8359 0.16016-6.7422 0.24219-15.055 0.24219-15.055 0-1.9883-0.90234-3.8711-2.4492-5.1172zm-264.44-225.23h5.3516c3.625 0 6.5625 2.9414 6.5625 6.5625 0 3.625-2.9375 6.5625-6.5625 6.5625h-7.1797c0.58594-4.5625 1.1953-8.9453 1.8281-13.125zm-3.6953 199.62v0.003907c-0.03125 1.0234-0.51172 1.9844-1.3125 2.625l-7.8398 6.2578c-0.26172 0.21484-0.625 0.25781-0.92969 0.10938-0.30469-0.14453-0.5-0.45703-0.49609-0.79297 0.6875-22.668 1.6484-48.715 2.9844-75.367v-0.003907c0.050781-1.082 0.60547-2.082 1.4961-2.7031l7.332-5.1055c0.26953-0.1875 0.625-0.20703 0.91797-0.050781 0.28906 0.16016 0.46484 0.46875 0.45703 0.80078zm17.898-14.645c-0.046875 1.2617-0.64844 2.4375-1.6406 3.2188l-7.8242 5.8203c-0.26953 0.20313-0.63281 0.23047-0.93359 0.074219-0.30078-0.16016-0.48047-0.47656-0.46484-0.8125l3.0625-73.062c0.023438-1.1172 0.58203-2.1523 1.4961-2.793l7.1562-4.9844c0.26953-0.1875 0.625-0.20703 0.91406-0.050782 0.28906 0.15625 0.46875 0.45703 0.46094 0.78906-0.48828 24.621-1.3086 49.223-2.2266 71.801zm2.1484-89.422-25.195 17.547v0.003906c-0.27734 0.19141-0.63672 0.21094-0.93359 0.046875-0.29297-0.16406-0.46484-0.48047-0.44531-0.81641 0.23438-4.0391 0.47266-8.0703 0.71875-12.098 0.015625-0.26953 0.15625-0.51562 0.375-0.66797l24.586-17.129v0.003906c0.26953-0.19141 0.62109-0.21484 0.91406-0.066406 0.28906 0.15234 0.47266 0.45312 0.46875 0.78125-0.027344 3.875-0.0625 7.7656-0.11328 11.68v0.003907c-0.003907 0.27734-0.14453 0.53906-0.375 0.69922zm40.512-123.38h7.5078c3.625 0 6.5625 2.9375 6.5625 6.5625s-2.9375 6.5625-6.5625 6.5625h-9.2617c0.56641-4.5508 1.1523-8.9297 1.7539-13.129zm-2.668 181.16c-0.03125 1.0273-0.51172 1.9844-1.3125 2.625l-7.9805 6.3711c-0.26562 0.21094-0.625 0.25-0.92969 0.10547-0.30469-0.14844-0.49609-0.45703-0.49219-0.79688 0.80078-23.074 1.8672-48.668 3.2969-74.406 0.0625-1.1133 0.64844-2.1328 1.582-2.7422l7.0273-4.5938c0.26953-0.17969 0.62109-0.1875 0.90625-0.027343 0.28125 0.15625 0.45312 0.46094 0.44531 0.78906zm18.531-14.816c-0.027344 1.0273-0.50781 1.9883-1.3125 2.625l-7.3477 5.8516c-0.26562 0.21094-0.62891 0.25-0.92969 0.10156-0.30469-0.15234-0.49609-0.46094-0.48828-0.80078l1.5898-70.379h-0.003907c0.027344-1.1562 0.61719-2.2227 1.5859-2.8516l7.1172-4.6523c0.26953-0.17969 0.61719-0.19141 0.89844-0.039062 0.28516 0.15625 0.46094 0.45312 0.45703 0.77734-0.24609 23.305-0.83594 47.051-1.5664 69.363zm-24.789-71.133c0.26953-4.3125 0.55469-8.6055 0.84766-12.871h0.003907c0.015625-0.27734 0.16797-0.53125 0.40234-0.67969l23.867-15.352h-0.003906c0.26562-0.17188 0.60547-0.1875 0.88672-0.039063 0.28125 0.14844 0.46094 0.4375 0.46484 0.75781 0.015625 3.9961 0.015625 8.0234 0 12.078 0.003906 0.29688-0.14844 0.57812-0.39844 0.73828l-24.723 16.188c-0.28125 0.18359-0.64453 0.19141-0.93359 0.015625-0.28516-0.17578-0.44531-0.5-0.41406-0.83594zm67.445-108.04c1.5586 0 2.9609 0.9375 3.5586 2.375 0.59375 1.4375 0.26563 3.0898-0.83594 4.1914-1.0977 1.1016-2.7539 1.4297-4.1914 0.83203-1.4375-0.59375-2.375-2-2.3711-3.5547 0-2.1211 1.7188-3.8398 3.8398-3.8438zm7.625 132.12c-4.2461 3.9688-10.875 3.8555-14.984-0.25391s-4.2227-10.738-0.25781-14.988c4.2344-4.082 10.961-4.0195 15.117 0.14063 4.1562 4.1602 4.2148 10.887 0.125 15.117zm43.312-119.32h7.5078c0.60938 4.1914 1.1914 8.5664 1.75 13.125l-9.2695 0.003906c-3.625 0-6.5625-2.9375-6.5625-6.5625s2.9375-6.5625 6.5625-6.5625zm-8.6953 66.328 23.871 15.352c0.23047 0.15234 0.37891 0.40234 0.39453 0.67969 0.29297 4.2656 0.57422 8.5547 0.84766 12.871h0.003906c0.027344 0.33203-0.14062 0.65234-0.42969 0.82422-0.28906 0.17188-0.64844 0.16016-0.92578-0.023437l-24.723-16.188h-0.003907c-0.24609-0.16406-0.39844-0.4375-0.39844-0.73438v-12.078-0.003906c0.011719-0.31641 0.19531-0.60547 0.47656-0.75 0.28125-0.14453 0.62109-0.125 0.88672 0.050781zm1.6406 102.64c-0.80078-0.64063-1.2812-1.5977-1.3125-2.625-0.72656-22.312-1.3125-46.059-1.5664-69.359-0.003906-0.32422 0.17188-0.625 0.45703-0.78125s0.63281-0.14062 0.90234 0.039063l7.1172 4.6562c0.96484 0.63281 1.5586 1.6953 1.5859 2.8477l1.5898 70.379-0.003907 0.003906c0.007813 0.33594-0.18359 0.64844-0.48437 0.79688-0.30469 0.14844-0.66797 0.11328-0.92969-0.097657zm18.531 14.824c-0.80078-0.64062-1.2812-1.6016-1.3125-2.625l-2.5195-72.66c-0.011719-0.32812 0.16016-0.63281 0.44531-0.78906 0.28516-0.16016 0.63281-0.15234 0.90625 0.027343l7.0273 4.5938c0.93359 0.60938 1.5195 1.6289 1.5781 2.7422 1.4258 25.711 2.5 51.32 3.2969 74.406h0.003906c0 0.33984-0.19141 0.64844-0.49219 0.79688-0.30469 0.14453-0.66797 0.10547-0.92969-0.10547zm47.531-155.95h5.3516c0.63281 4.1797 1.2422 8.5625 1.8281 13.125h-7.1797c-3.625 0-6.5625-2.9375-6.5625-6.5625 0-3.6211 2.9375-6.5625 6.5625-6.5625zm-10.105 82.43 24.586 17.129c0.21875 0.15234 0.35938 0.39844 0.375 0.66406 0.24609 4.0195 0.48438 8.0508 0.71875 12.098 0.019531 0.33594-0.15234 0.65625-0.44531 0.82031-0.29688 0.16406-0.65625 0.14453-0.93359-0.050781l-25.195-17.547c-0.22656-0.15625-0.36719-0.41406-0.375-0.69141-0.050781-3.9102-0.085937-7.8047-0.11328-11.68-0.011719-0.33203 0.16797-0.64453 0.46094-0.80078 0.29297-0.15625 0.64844-0.13281 0.92187 0.058594zm0.32813 102.28c-0.078126-4.418-0.83984-47.328-1.3125-71.578 0.003906-0.32031 0.19141-0.61328 0.48047-0.75781 0.28516-0.14844 0.63281-0.12109 0.89453 0.0625l7.1562 4.9883h0.003906c0.91406 0.64062 1.4688 1.6758 1.4961 2.793l1.4336 71.43c0.007813 0.34375-0.1875 0.66016-0.49609 0.80859-0.30859 0.14844-0.67578 0.10156-0.9375-0.11719l-8.418-7c-0.1875-0.15234-0.30078-0.38281-0.30078-0.625zm20.125 17.5v0.003906c-0.80078-0.64062-1.2812-1.6016-1.3125-2.625l-2.6016-74.23h-0.003906c-0.011719-0.33203 0.16797-0.64062 0.45703-0.80078 0.28906-0.15625 0.64453-0.13672 0.91797 0.050781l7.332 5.1406c0.89062 0.62109 1.4453 1.6211 1.4961 2.7031 1.3359 26.688 2.293 52.691 2.9805 75.363v0.003906c0 0.33594-0.19141 0.64453-0.49609 0.78906-0.30469 0.14844-0.66406 0.10547-0.92578-0.10547z"/>
  <use x="70" y="625.625" xlink:href="#u"/>
  <use x="86.054688" y="625.625" xlink:href="#b"/>
  <use x="96.839844" y="625.625" xlink:href="#a"/>
  <use x="111.679687" y="625.625" xlink:href="#k"/>
  <use x="126.4375" y="625.625" xlink:href="#c"/>
  <use x="136.894531" y="625.625" xlink:href="#a"/>
  <use x="151.730469" y="625.625" xlink:href="#j"/>
  <use x="175.007812" y="625.625" xlink:href="#i"/>
  <use x="190.664062" y="625.625" xlink:href="#h"/>
  <use x="212.539062" y="625.625" xlink:href="#g"/>
  <use x="229.46875" y="625.625" xlink:href="#t"/>
  <use x="236.96875" y="625.625" xlink:href="#f"/>
  <use x="249.933594" y="625.625" xlink:href="#c"/>
  <use x="260.390625" y="625.625" xlink:href="#d"/>
  <use x="275.421875" y="625.625" xlink:href="#b"/>
  <use x="286.207031" y="625.625" xlink:href="#e"/>
  <use x="301.78125" y="625.625" xlink:href="#s"/>
  <use x="309.277344" y="625.625" xlink:href="#a"/>
  <use x="324.117188" y="625.625" xlink:href="#b"/>
  <use x="70" y="647.5" xlink:href="#r"/>
  <use x="79.515625" y="647.5" xlink:href="#b"/>
  <use x="90.304688" y="647.5" xlink:href="#d"/>
  <use x="105.332031" y="647.5" xlink:href="#q"/>
  <use x="135.742188" y="647.5" xlink:href="#c"/>
  <use x="146.199219" y="647.5" xlink:href="#p"/>
  <use x="161.773438" y="647.5" xlink:href="#a"/>
  <use x="184.222656" y="647.5" xlink:href="#o"/>
  <use x="202.53125" y="647.5" xlink:href="#d"/>
  <use x="217.558594" y="647.5" xlink:href="#e"/>
  <use x="233.132812" y="647.5" xlink:href="#n"/>
  <use x="256.320312" y="647.5" xlink:href="#m"/>
  <use x="272.355469" y="647.5" xlink:href="#b"/>
  <use x="283.140625" y="647.5" xlink:href="#d"/>
  <use x="298.171875" y="647.5" xlink:href="#l"/>
  <use x="305.667969" y="647.5" xlink:href="#a"/>
  <use x="320.503906" y="647.5" xlink:href="#f"/>
  <use x="333.472656" y="647.5" xlink:href="#c"/>
 </g>
</svg>
